<svg width="40" height="40" viewBox="0 0 40 40" fill="none" xmlns="http://www.w3.org/2000/svg">
  <rect x="8" y="12" width="24" height="20" rx="6" fill="url(#gradient1)" stroke="#667eea" stroke-width="1"/>
  
  <circle cx="16" cy="20" r="3" fill="#ffffff"/>
  <circle cx="24" cy="20" r="3" fill="#ffffff"/>
  <circle cx="16" cy="20" r="1.5" fill="#667eea"/>
  <circle cx="24" cy="20" r="1.5" fill="#667eea"/>
  
  <line x1="20" y1="12" x2="20" y2="8" stroke="#764ba2" stroke-width="2" stroke-linecap="round"/>
  <circle cx="20" cy="6" r="2" fill="#f093fb"/>
  
  <rect x="17" y="25" width="6" height="2" rx="1" fill="#667eea" opacity="0.7"/>
  
  <rect x="6" y="16" width="3" height="8" rx="1.5" fill="url(#gradient2)"/>
  <rect x="31" y="16" width="3" height="8" rx="1.5" fill="url(#gradient2)"/>
  
  <circle cx="13" cy="23" r="1.5" fill="#f093fb" opacity="0.3"/>
  <circle cx="27" cy="23" r="1.5" fill="#f093fb" opacity="0.3"/>
  
  <rect x="16" y="32" width="8" height="4" rx="2" fill="url(#gradient1)" opacity="0.6"/>
  
  <defs>
    <linearGradient id="gradient1" x1="0%" y1="0%" x2="100%" y2="100%">
      <stop offset="0%" style="stop-color:#667eea;stop-opacity:0.2" />
      <stop offset="100%" style="stop-color:#764ba2;stop-opacity:0.3" />
    </linearGradient>
    <linearGradient id="gradient2" x1="0%" y1="0%" x2="100%" y2="100%">
      <stop offset="0%" style="stop-color:#f093fb;stop-opacity:0.6" />
      <stop offset="100%" style="stop-color:#f5576c;stop-opacity:0.6" />
    </linearGradient>
  </defs>
</svg>
